<svg width="20" height="20" viewBox="0 0 20 20" fill="none" xmlns="http://www.w3.org/2000/svg">
<path d="M7.21438 9.07144H4.98592C2.73848 9.07144 0.900024 7.23272 0.900024 4.98554C0.900024 2.73836 2.73848 0.899902 4.98566 0.899902C7.23284 0.899902 9.07131 2.73836 9.07131 4.98554V7.214C9.07137 7.4579 9.02339 7.69942 8.9301 7.92477C8.83682 8.15013 8.70005 8.35489 8.52761 8.52738C8.35517 8.69987 8.15044 8.83669 7.92512 8.93004C7.69979 9.0234 7.45828 9.07144 7.21438 9.07144ZM12.7857 9.07144H15.0141C17.2616 9.07144 19.1 7.23272 19.1 4.98554C19.1 2.73836 17.2616 0.899902 15.0144 0.899902C12.7672 0.899902 10.9287 2.73836 10.9287 4.98554V7.214C10.9287 7.4579 10.9767 7.69942 11.0699 7.92477C11.1632 8.15013 11.3 8.35489 11.4724 8.52738C11.6449 8.69987 11.8496 8.83669 12.0749 8.93004C12.3003 9.0234 12.5418 9.07144 12.7857 9.07144ZM7.21438 10.9284H4.98592C2.73848 10.9284 0.900024 12.7671 0.900024 15.0143C0.900024 17.2614 2.73848 19.0999 4.98566 19.0999C7.23284 19.0999 9.07131 17.2614 9.07131 15.0143V12.7858C9.07137 12.5419 9.02339 12.3004 8.9301 12.075C8.83682 11.8497 8.70005 11.6449 8.52761 11.4724C8.35517 11.2999 8.15044 11.1631 7.92512 11.0698C7.69979 10.9764 7.45828 10.9284 7.21438 10.9284ZM12.7857 10.9284H15.0141C17.2616 10.9284 19.1 12.7671 19.1 15.0143C19.1 17.2614 17.2616 19.0999 15.0144 19.0999C12.7672 19.0999 10.9287 17.2614 10.9287 15.0143V12.7858C10.9287 12.5419 10.9767 12.3004 11.0699 12.075C11.1632 11.8497 11.3 11.6449 11.4724 11.4724C11.6449 11.2999 11.8496 11.1631 12.0749 11.0698C12.3003 10.9764 12.5418 10.9284 12.7857 10.9284Z" fill="#3889FF"/>
</svg>
