<svg width="26" height="26" viewBox="0 0 26 26" fill="none" xmlns="http://www.w3.org/2000/svg">
<path d="M13.1963 10.1786C13.0288 10.0791 12.8201 10.0798 12.6533 10.1805L3.2663 15.8425C2.92547 16.0481 2.92547 16.5423 3.2663 16.7479L12.6533 22.4099C12.8201 22.5105 13.0288 22.5112 13.1963 22.4118L22.7323 16.7498C23.0773 16.5449 23.0773 16.0454 22.7323 15.8406L13.1963 10.1786Z" fill="#F9D65D"/>
<path d="M13.2006 6.80622C13.0305 6.70257 12.8165 6.70332 12.6472 6.80817L3.25041 12.6252C2.91426 12.8333 2.91709 13.3232 3.25562 13.5274L12.6523 19.1953C12.8192 19.2959 13.0278 19.2966 13.1953 19.1972L22.7412 13.5293C23.084 13.3258 23.0868 12.8307 22.7464 12.6232L13.2006 6.80622Z" fill="#F36D78"/>
<path d="M13.1963 3.58825C13.0288 3.48879 12.8202 3.48951 12.6534 3.59014L3.26636 9.25214C2.92553 9.45772 2.92553 9.95197 3.26636 10.1576L12.6534 15.8196C12.8202 15.9202 13.0288 15.9209 13.1963 15.8214L22.7324 10.1594C23.0774 9.95458 23.0774 9.45512 22.7324 9.25026L13.1963 3.58825Z" fill="#266FE8"/>
</svg>
